<svg version="1.1" id="sticky" x="0px" y="0px"
	 viewBox="0 0 356.7 474" style="enable-background:new 0 0 356.7 474;" xml:space="preserve">
<path d="M346.7,112H224.3l7-14.3c3.3,0.7,6.7,1,10,1c22.2,0,42.4-15.1,48-37.6c3.2-12.8,1.1-26.1-5.7-37.4
	c-6.8-11.3-17.7-19.3-30.5-22.4c-12.8-3.2-26.1-1.1-37.4,5.7c-11.3,6.8-19.3,17.6-22.4,30.5c-3.2,12.8-1.1,26.1,5.7,37.4
	c3.6,6,8.3,11,13.9,14.9L202,112H9.9c-2.2,0-4.2,0.7-5.9,1.9c0,0-3.9,0.9-4,6.2C0,120.7-0.1,428-0.1,428v36c0,5.5,4.5,10,10,10
	h336.8c5.5,0,10-4.5,10-10V122C356.7,116.5,352.3,112,346.7,112z M212.7,42.4L212.7,42.4c1.9-7.6,6.6-14.1,13.3-18.1
	c4.7-2.8,9.9-4.3,15.2-4.3c2.4,0,4.7,0.3,7.1,0.9c15.7,3.9,25.4,19.8,21.5,35.6S250,81.9,234.3,78c-7.6-1.9-14.1-6.6-18.1-13.3
	C212.1,57.9,210.9,50,212.7,42.4z M336.7,454h-205l-0.3-0.1l0,0.1H19.9V132h172.2l-25.6,52c-2.4,5-0.4,10.9,4.6,13.4
	c1.4,0.7,2.9,1,4.4,1c3.7,0,7.2-2.1,9-5.6l30-60.9h122.3V454z"/>
<path d="M272.7,369H83.9c-5.5,0-10,4.5-10,10c0,5.5,4.5,10,10,10h188.8c5.5,0,10-4.5,10-10C282.7,373.5,278.3,369,272.7,369z"/>
<path d="M272.7,297.5H83.9c-5.5,0-10,4.5-10,10c0,5.5,4.5,10,10,10h188.8c5.5,0,10-4.5,10-10C282.7,302,278.3,297.5,272.7,297.5z"/>
<path d="M73.9,236c0,5.5,4.5,10,10,10h188.8c5.5,0,10-4.5,10-10s-4.5-10-10-10H83.9C78.4,226,73.9,230.5,73.9,236z"/>
</svg>
